<?xml version="1.0" encoding="utf-8"?>
<svg viewBox="0 0 260 79" fill="none" stroke-width="0" xmlns="http://www.w3.org/2000/svg">
  <path d="M78.5902 39.7317C78.5902 61.419 60.9972 79 39.2951 79C17.593 79 0 61.419 0 39.7317C0 18.0444 25.2434 0 46.9455 0C68.6476 0 78.5902 18.0444 78.5902 39.7317Z" fill="#3730A3" transform="matrix(0.9999999999999999, 0, 0, 0.9999999999999999, 0, 0)"/>
  <path d="M54.5953 23.7153C64.9769 29.705 68.5427 42.9556 62.5597 53.3114C56.5768 63.6671 43.3107 67.2065 32.9291 61.2168C22.5475 55.227 20.869 38.1979 26.852 27.8421C32.835 17.4864 44.2138 17.7256 54.5953 23.7153Z" fill="#F3F4F6" transform="matrix(0.9999999999999999, 0, 0, 0.9999999999999999, 0, 0)"/>
  <path d="M58.1887 41.7872C58.1887 49.0577 49.6462 55.2043 44.9749 56.7595C44.2184 57.0114 43.4501 57.0835 42.9565 57.0835C34.5439 57.0835 30.8328 52.189 30.8328 43.7411C30.8328 35.2931 34.5439 27.8957 42.9565 27.8957C51.369 27.8957 58.1887 33.3393 58.1887 41.7872Z" fill="#22D3EE" transform="matrix(0.9999999999999999, 0, 0, 0.9999999999999999, 0, 0)"/>
  <path d="M44.6357 48.1877C41.7507 48.1877 39.3568 43.7944 39.412 43.0277C39.412 40.178 41.0835 38.9208 43.9684 38.9208C46.8534 38.9208 49.3797 40.178 49.3797 43.0277C49.3797 45.8775 47.5207 48.1877 44.6357 48.1877Z" fill="#1F2937" transform="matrix(0.9999999999999999, 0, 0, 0.9999999999999999, 0, 0)"/>
  <g transform="matrix(0.9999999999999999, 0, 0, 0.9999999999999999, -2, 9)">
    <path d="M 88.874 20.412 C 88.874 16.509 89.893 13.409 91.93 11.113 C 93.968 8.817 96.854 7.669 100.59 7.669 C 102.842 7.669 104.608 7.957 105.887 8.534 C 107.178 9.111 108.31 10.004 109.283 11.215 C 109.872 11.95 109.855 12.521 109.232 12.929 L 107.297 14.184 C 106.731 14.558 106.125 14.394 105.48 13.692 C 104.948 13.115 104.274 12.635 103.459 12.25 C 102.644 11.865 101.744 11.673 100.76 11.673 C 98.382 11.673 96.69 12.425 95.683 13.93 C 94.675 15.423 94.171 17.584 94.171 20.412 C 94.171 23.24 94.675 25.406 95.683 26.91 C 96.69 28.404 98.382 29.15 100.76 29.15 C 101.914 29.15 102.91 29.037 103.748 28.811 C 104.586 28.573 105.378 28.149 106.125 27.538 L 106.125 24.501 L 102.441 24.501 C 101.592 24.501 101.167 24.133 101.167 23.398 L 101.167 21.396 C 101.167 20.66 101.592 20.293 102.441 20.293 L 109.81 20.293 C 110.659 20.293 111.083 20.66 111.083 21.396 L 111.083 30.016 C 109.498 31.181 107.897 31.995 106.278 32.459 C 104.671 32.923 102.774 33.155 100.59 33.155 C 96.911 33.155 94.036 32.007 91.964 29.71 C 89.904 27.414 88.874 24.314 88.874 20.412 Z" fill="black"/>
    <path d="M 116.313 32.578 C 115.634 32.578 115.294 32.238 115.294 31.56 L 115.294 11.52 C 115.294 11.011 115.413 10.547 115.651 10.129 L 116.958 7.838 C 117.207 7.408 117.502 7.193 117.841 7.193 L 119.03 7.193 C 119.709 7.193 120.049 7.533 120.049 8.212 L 120.049 31.56 C 120.049 32.238 119.709 32.578 119.03 32.578 L 116.313 32.578 Z" fill="black"/>
    <path d="M 124.633 25.18 L 124.633 15.779 C 124.633 15.1 124.973 14.761 125.652 14.761 L 128.369 14.761 C 129.048 14.761 129.387 15.1 129.387 15.779 L 129.387 23.958 C 129.387 26.424 129.557 27.979 129.897 28.624 C 130.236 29.269 130.949 29.591 132.036 29.591 C 133.191 29.591 134.068 29.133 134.668 28.217 C 135.268 27.289 135.568 25.372 135.568 22.465 L 135.568 15.779 C 135.568 15.1 135.908 14.761 136.587 14.761 L 139.303 14.761 C 139.983 14.761 140.322 15.1 140.322 15.779 L 140.322 31.56 C 140.322 32.238 139.983 32.578 139.303 32.578 L 136.621 32.578 C 135.942 32.578 135.602 32.238 135.602 31.56 L 135.602 30.575 L 135.534 30.575 C 135.013 31.469 134.351 32.086 133.547 32.425 C 132.744 32.753 131.793 32.917 130.695 32.917 C 128.963 32.917 127.52 32.363 126.365 31.254 C 125.21 30.146 124.633 28.121 124.633 25.18 Z" fill="black"/>
    <path d="M 143.99 23.669 C 143.99 20.807 144.703 18.551 146.129 16.899 C 147.567 15.248 149.593 14.422 152.208 14.422 C 155.242 14.422 157.494 15.202 158.966 16.763 C 160.438 18.325 161.173 20.836 161.173 24.297 C 161.173 24.976 160.856 25.315 160.222 25.315 L 149.016 25.315 C 149.197 27.193 149.661 28.375 150.408 28.862 C 151.155 29.348 152.021 29.591 153.006 29.591 C 153.946 29.591 154.664 29.467 155.163 29.218 C 155.661 28.969 156.079 28.63 156.419 28.2 C 156.804 27.702 157.279 27.623 157.845 27.962 L 159.543 28.997 C 160.211 29.405 160.307 29.891 159.832 30.457 C 159.141 31.283 158.332 31.899 157.404 32.306 C 156.476 32.714 155.01 32.917 153.006 32.917 C 149.757 32.917 147.442 32.091 146.061 30.44 C 144.68 28.788 143.99 26.531 143.99 23.669 Z M 149.033 21.922 L 156.419 21.922 C 156.419 20.7 156.113 19.705 155.502 18.935 C 154.891 18.155 153.917 17.765 152.582 17.765 C 151.518 17.765 150.674 18.138 150.052 18.884 C 149.429 19.62 149.089 20.632 149.033 21.922 Z" fill="black"/>
    <path d="M 165.361 23.669 C 165.361 21.011 166.017 18.817 167.33 17.086 C 168.655 15.344 170.675 14.473 173.392 14.473 C 175.226 14.473 176.624 14.801 177.586 15.457 C 178.559 16.102 179.261 16.763 179.691 17.442 C 179.929 17.815 179.878 18.115 179.539 18.341 L 178.469 19.037 C 178.129 19.275 177.79 19.122 177.45 18.579 C 177.122 18.059 176.658 17.612 176.058 17.239 C 175.469 16.865 174.581 16.679 173.392 16.679 C 171.841 16.679 170.641 17.25 169.792 18.392 C 168.943 19.535 168.519 21.294 168.519 23.669 C 168.519 26.045 168.943 27.804 169.792 28.947 C 170.641 30.089 171.841 30.66 173.392 30.66 C 174.648 30.66 175.611 30.423 176.278 29.948 C 176.946 29.461 177.433 28.935 177.739 28.37 C 178.033 27.838 178.367 27.685 178.741 27.911 L 179.878 28.59 C 180.218 28.794 180.269 29.099 180.031 29.507 C 179.748 29.993 179.103 30.677 178.095 31.56 C 177.099 32.431 175.531 32.866 173.392 32.866 C 170.675 32.866 168.655 32.001 167.33 30.27 C 166.017 28.528 165.361 26.328 165.361 23.669 Z" fill="black"/>
    <path d="M 184.514 32.578 C 184.004 32.578 183.75 32.323 183.75 31.814 L 183.75 8.296 C 183.75 7.787 184.004 7.533 184.514 7.533 L 185.974 7.533 C 186.483 7.533 186.738 7.787 186.738 8.296 L 186.738 15.864 C 186.738 16.203 186.727 16.543 186.704 16.882 L 186.772 16.882 C 187.508 16.068 188.3 15.462 189.149 15.067 C 189.998 14.671 191.056 14.473 192.324 14.473 C 194.385 14.473 195.862 15.055 196.756 16.22 C 197.662 17.374 198.114 18.958 198.114 20.972 L 198.114 31.814 C 198.114 32.323 197.86 32.578 197.35 32.578 L 195.89 32.578 C 195.381 32.578 195.126 32.323 195.126 31.814 L 195.126 21.786 C 195.126 19.569 194.758 18.166 194.022 17.578 C 193.286 16.978 192.353 16.679 191.221 16.679 C 189.749 16.679 188.634 17.12 187.876 18.002 C 187.117 18.873 186.738 20.372 186.738 22.499 L 186.738 31.814 C 186.738 32.323 186.483 32.578 185.974 32.578 L 184.514 32.578 Z" fill="black"/>
    <path d="M 201.935 27.827 C 201.935 25.813 202.874 24.337 204.753 23.398 C 206.644 22.459 209.462 21.91 213.209 21.752 L 213.209 20.598 C 213.209 19.535 212.966 18.619 212.479 17.849 C 212.004 17.069 211.053 16.679 209.627 16.679 C 208.721 16.679 207.997 16.769 207.453 16.95 C 206.91 17.12 206.412 17.352 205.959 17.646 C 205.518 17.929 205.093 18.296 204.686 18.749 C 204.38 19.088 204.091 19.105 203.82 18.8 L 202.937 17.782 C 202.688 17.499 202.772 17.159 203.191 16.763 C 203.791 16.198 204.374 15.774 204.94 15.491 C 205.506 15.208 206.208 14.97 207.046 14.778 C 207.895 14.575 208.755 14.473 209.627 14.473 C 211.992 14.473 213.679 15.084 214.687 16.305 C 215.694 17.516 216.198 19.179 216.198 21.294 L 216.198 31.814 C 216.198 32.323 215.943 32.578 215.434 32.578 L 213.906 32.578 C 213.464 32.578 213.243 32.323 213.243 31.814 L 213.243 30.983 L 213.209 30.983 C 212.315 31.684 211.438 32.176 210.577 32.459 C 209.729 32.73 208.778 32.866 207.725 32.866 C 205.868 32.866 204.436 32.425 203.429 31.543 C 202.433 30.649 201.935 29.41 201.935 27.827 Z M 205.025 27.895 C 205.025 28.596 205.172 29.161 205.467 29.591 C 205.761 30.01 206.168 30.281 206.689 30.406 C 207.21 30.519 207.753 30.575 208.319 30.575 C 209.191 30.575 210.017 30.491 210.798 30.321 C 211.579 30.151 212.383 29.704 213.209 28.981 L 213.209 23.975 C 210.923 24.145 209.293 24.354 208.319 24.603 C 207.346 24.84 206.553 25.259 205.942 25.858 C 205.331 26.447 205.025 27.125 205.025 27.895 Z" fill="black"/>
    <path d="M 221.801 32.578 C 221.292 32.578 221.037 32.323 221.037 31.814 L 221.037 15.525 C 221.037 15.016 221.292 14.761 221.801 14.761 L 223.227 14.761 C 223.737 14.761 223.991 15.016 223.991 15.525 L 223.991 17.561 L 224.059 17.561 C 224.603 16.543 225.242 15.774 225.978 15.253 C 226.714 14.733 227.631 14.473 228.729 14.473 C 229.453 14.473 229.963 14.535 230.257 14.659 C 230.517 14.761 230.614 14.931 230.546 15.168 L 230.155 16.56 C 230.098 16.763 229.951 16.843 229.714 16.797 C 229.317 16.718 228.944 16.679 228.593 16.679 C 227.269 16.679 226.176 17.278 225.316 18.477 C 224.456 19.665 224.025 21.288 224.025 23.347 L 224.025 31.814 C 224.025 32.323 223.771 32.578 223.261 32.578 L 221.801 32.578 Z" fill="black"/>
    <path d="M 234.06 32.578 C 233.551 32.578 233.296 32.323 233.296 31.814 L 233.296 15.525 C 233.296 15.016 233.551 14.761 234.06 14.761 L 235.487 14.761 C 235.996 14.761 236.251 15.016 236.251 15.525 L 236.251 16.882 L 236.319 16.882 C 237.055 16.068 237.853 15.462 238.713 15.067 C 239.573 14.671 240.4 14.473 241.192 14.473 C 242.652 14.473 243.773 14.84 244.554 15.576 C 245.346 16.3 245.856 17.029 246.082 17.765 L 246.15 17.765 C 246.773 16.837 247.559 16.056 248.51 15.423 C 249.461 14.79 250.474 14.473 251.55 14.473 C 253.349 14.473 254.708 15.055 255.625 16.22 C 256.542 17.374 257 18.958 257 20.972 L 257 31.814 C 257 32.323 256.745 32.578 256.236 32.578 L 254.776 32.578 C 254.266 32.578 254.012 32.323 254.012 31.814 L 254.012 21.956 C 254.012 19.739 253.734 18.307 253.18 17.663 C 252.625 17.007 251.77 16.679 250.616 16.679 C 249.484 16.679 248.538 17.165 247.78 18.138 C 247.022 19.099 246.642 20.553 246.642 22.499 L 246.642 31.814 C 246.642 32.323 246.388 32.578 245.878 32.578 L 244.418 32.578 C 243.909 32.578 243.654 32.323 243.654 31.814 L 243.654 21.956 C 243.654 19.739 243.377 18.307 242.822 17.663 C 242.267 17.007 241.413 16.679 240.258 16.679 C 239.126 16.679 238.181 17.12 237.422 18.002 C 236.664 18.873 236.285 20.372 236.285 22.499 L 236.285 31.814 C 236.285 32.323 236.03 32.578 235.521 32.578 L 234.06 32.578 Z" fill="black"/>
  </g>
  <path d="M 87.811 63.343 Q 87.125 63.343 87.363 62.715 L 92.029 50.46 Q 92.324 49.689 92.924 49.689 L 94.257 49.689 Q 94.857 49.689 95.152 50.46 L 99.818 62.715 Q 100.056 63.343 99.37 63.343 L 97.856 63.343 Q 97.228 63.343 96.98 62.686 L 96.009 60.125 L 91.172 60.125 L 90.201 62.686 Q 89.953 63.343 89.325 63.343 Z M 92.058 57.763 L 95.123 57.763 L 93.952 54.736 Q 93.743 54.202 93.7 53.96 Q 93.657 53.717 93.61 53.241 L 93.571 53.241 Q 93.524 53.717 93.481 53.96 Q 93.438 54.202 93.229 54.736 Z" style="fill: rgb(54, 48, 163); white-space: pre;"/>
  <path d="M 102.086 67.152 Q 101.515 67.152 101.515 66.58 L 101.515 53.917 Q 101.515 53.345 102.086 53.345 L 103.59 53.345 Q 104.066 53.345 104.104 53.917 L 104.142 54.469 L 104.181 54.469 Q 104.676 53.65 105.285 53.403 Q 105.894 53.155 106.751 53.155 Q 108.989 53.155 109.898 54.702 Q 110.808 56.249 110.808 58.344 Q 110.808 60.439 109.898 61.986 Q 108.989 63.533 106.751 63.533 Q 105.894 63.533 105.285 63.286 Q 104.676 63.038 104.181 62.219 L 104.142 62.219 Q 104.181 62.6 104.181 62.981 L 104.181 66.58 Q 104.181 67.152 103.609 67.152 Z M 104.181 58.773 Q 104.181 60.058 104.69 60.863 Q 105.199 61.667 105.913 61.667 Q 107.199 61.667 107.594 60.767 Q 107.989 59.868 107.989 58.344 Q 107.989 56.821 107.594 55.921 Q 107.199 55.021 105.913 55.021 Q 105.199 55.021 104.69 55.826 Q 104.181 56.63 104.181 57.916 Z" style="fill: rgb(54, 48, 163); white-space: pre;"/>
  <path d="M 113.437 67.152 Q 112.866 67.152 112.866 66.58 L 112.866 53.917 Q 112.866 53.345 113.437 53.345 L 114.942 53.345 Q 115.418 53.345 115.456 53.917 L 115.494 54.469 L 115.532 54.469 Q 116.027 53.65 116.637 53.403 Q 117.246 53.155 118.103 53.155 Q 120.34 53.155 121.25 54.702 Q 122.159 56.249 122.159 58.344 Q 122.159 60.439 121.25 61.986 Q 120.34 63.533 118.103 63.533 Q 117.246 63.533 116.637 63.286 Q 116.027 63.038 115.532 62.219 L 115.494 62.219 Q 115.532 62.6 115.532 62.981 L 115.532 66.58 Q 115.532 67.152 114.961 67.152 Z M 115.532 58.773 Q 115.532 60.058 116.042 60.863 Q 116.551 61.667 117.265 61.667 Q 118.55 61.667 118.946 60.767 Q 119.341 59.868 119.341 58.344 Q 119.341 56.821 118.946 55.921 Q 118.55 55.021 117.265 55.021 Q 116.551 55.021 116.042 55.826 Q 115.532 56.63 115.532 57.916 Z" style="fill: rgb(54, 48, 163); white-space: pre;"/>
  <path d="M 131.777 63.343 Q 131.11 63.343 131.11 62.629 L 131.11 50.403 Q 131.11 49.689 131.777 49.689 L 135.1 49.689 Q 139.48 49.689 141.027 51.46 Q 142.574 53.231 142.574 56.497 Q 142.574 59.763 141.027 61.553 Q 139.48 63.343 135.1 63.343 Z M 133.891 60.982 L 134.919 60.982 Q 137.871 60.982 138.737 59.882 Q 139.603 58.782 139.603 56.497 Q 139.603 54.212 138.737 53.122 Q 137.871 52.031 134.919 52.031 L 133.891 52.031 Z" style="fill: rgb(54, 48, 163); white-space: pre;"/>
  <path d="M 144.153 58.344 Q 144.153 55.935 145.358 54.545 Q 146.562 53.155 148.762 53.155 Q 151.313 53.155 152.551 54.469 Q 153.789 55.783 153.789 58.697 Q 153.789 59.268 153.256 59.268 L 146.972 59.268 Q 147.124 60.848 147.752 61.258 Q 148.381 61.667 149.209 61.667 Q 149.999 61.667 150.418 61.458 Q 150.837 61.248 151.123 60.886 Q 151.447 60.468 151.923 60.753 L 152.875 61.334 Q 153.437 61.677 153.037 62.153 Q 152.456 62.848 151.675 63.191 Q 150.894 63.533 149.209 63.533 Q 146.476 63.533 145.315 62.143 Q 144.153 60.753 144.153 58.344 Z M 146.981 57.364 L 151.123 57.364 Q 151.123 56.335 150.609 55.683 Q 150.095 55.031 148.971 55.031 Q 148.076 55.031 147.552 55.654 Q 147.029 56.278 146.981 57.364 Z" style="fill: rgb(54, 48, 163); white-space: pre;"/>
  <path d="M 154.971 54.088 Q 154.733 53.345 155.285 53.345 L 156.99 53.345 Q 157.437 53.345 157.561 53.831 L 159.037 59.411 Q 159.161 59.877 159.241 60.334 Q 159.322 60.791 159.341 61.077 L 159.399 61.077 Q 159.418 60.791 159.499 60.334 Q 159.579 59.877 159.703 59.411 L 161.179 53.831 Q 161.303 53.345 161.75 53.345 L 163.455 53.345 Q 164.007 53.345 163.769 54.088 L 161.008 62.705 Q 160.808 63.343 160.313 63.343 L 158.427 63.343 Q 157.932 63.343 157.732 62.705 Z" style="fill: rgb(54, 48, 163); white-space: pre;"/>
  <path d="M 171.694 63.343 Q 171.008 63.343 171.246 62.715 L 175.912 50.46 Q 176.207 49.689 176.807 49.689 L 178.14 49.689 Q 178.74 49.689 179.035 50.46 L 183.7 62.715 Q 183.938 63.343 183.253 63.343 L 181.739 63.343 Q 181.111 63.343 180.863 62.686 L 179.892 60.125 L 175.055 60.125 L 174.084 62.686 Q 173.836 63.343 173.208 63.343 Z M 175.94 57.763 L 179.006 57.763 L 177.835 54.736 Q 177.626 54.202 177.583 53.96 Q 177.54 53.717 177.492 53.241 L 177.454 53.241 Q 177.407 53.717 177.364 53.96 Q 177.321 54.202 177.111 54.736 Z" style="fill: rgb(54, 48, 163); white-space: pre;"/>
  <path d="M 184.996 62.676 Q 184.529 62.343 184.739 61.962 L 185.224 61.077 Q 185.481 60.601 186.024 60.963 Q 186.567 61.324 187.305 61.496 Q 188.043 61.667 188.652 61.667 Q 189.08 61.667 189.452 61.582 Q 189.823 61.496 190.08 61.248 Q 190.337 61.001 190.337 60.525 Q 190.337 60.239 190.185 60.039 Q 190.033 59.839 189.795 59.734 Q 189.557 59.63 189.29 59.563 Q 188.938 59.477 188.276 59.277 Q 187.614 59.077 187.005 58.811 Q 186.5 58.592 186.019 58.197 Q 185.538 57.801 185.315 57.316 Q 185.091 56.83 185.091 56.116 Q 185.091 55.155 185.648 54.431 Q 186.205 53.707 187.09 53.431 Q 187.976 53.155 189.299 53.155 Q 190.194 53.155 191.042 53.412 Q 191.889 53.669 192.251 53.898 Q 192.822 54.26 192.537 54.669 L 191.956 55.516 Q 191.689 55.897 191.099 55.573 Q 190.652 55.326 190.218 55.174 Q 189.785 55.021 189.252 55.021 Q 188.89 55.021 188.557 55.097 Q 188.224 55.174 187.99 55.383 Q 187.757 55.593 187.757 55.935 Q 187.757 56.297 187.971 56.502 Q 188.185 56.707 188.466 56.802 Q 188.747 56.897 189.004 56.983 Q 189.538 57.154 190.08 57.311 Q 190.623 57.468 191.185 57.687 Q 191.67 57.878 192.127 58.23 Q 192.584 58.582 192.794 59.125 Q 193.003 59.668 193.003 60.363 Q 193.003 61.286 192.451 62.077 Q 191.899 62.867 190.994 63.2 Q 190.09 63.533 188.89 63.533 Q 187.548 63.533 186.605 63.343 Q 185.662 63.153 184.996 62.676 Z" style="fill: rgb(54, 48, 163); white-space: pre;"/>
  <path d="M 194.558 62.676 Q 194.092 62.343 194.301 61.962 L 194.787 61.077 Q 195.044 60.601 195.587 60.963 Q 196.129 61.324 196.867 61.496 Q 197.605 61.667 198.215 61.667 Q 198.643 61.667 199.014 61.582 Q 199.386 61.496 199.643 61.248 Q 199.9 61.001 199.9 60.525 Q 199.9 60.239 199.747 60.039 Q 199.595 59.839 199.357 59.734 Q 199.119 59.63 198.852 59.563 Q 198.5 59.477 197.838 59.277 Q 197.177 59.077 196.567 58.811 Q 196.063 58.592 195.582 58.197 Q 195.101 57.801 194.877 57.316 Q 194.653 56.83 194.653 56.116 Q 194.653 55.155 195.21 54.431 Q 195.767 53.707 196.653 53.431 Q 197.538 53.155 198.862 53.155 Q 199.757 53.155 200.604 53.412 Q 201.452 53.669 201.814 53.898 Q 202.385 54.26 202.099 54.669 L 201.518 55.516 Q 201.252 55.897 200.662 55.573 Q 200.214 55.326 199.781 55.174 Q 199.348 55.021 198.814 55.021 Q 198.453 55.021 198.119 55.097 Q 197.786 55.174 197.553 55.383 Q 197.319 55.593 197.319 55.935 Q 197.319 56.297 197.534 56.502 Q 197.748 56.707 198.029 56.802 Q 198.31 56.897 198.567 56.983 Q 199.1 57.154 199.643 57.311 Q 200.185 57.468 200.747 57.687 Q 201.233 57.878 201.69 58.23 Q 202.147 58.582 202.356 59.125 Q 202.566 59.668 202.566 60.363 Q 202.566 61.286 202.014 62.077 Q 201.461 62.867 200.557 63.2 Q 199.652 63.533 198.453 63.533 Q 197.11 63.533 196.167 63.343 Q 195.225 63.153 194.558 62.676 Z" style="fill: rgb(54, 48, 163); white-space: pre;"/>
  <path d="M 205.109 63.343 Q 204.538 63.343 204.538 62.772 L 204.538 53.917 Q 204.538 53.345 205.109 53.345 L 206.633 53.345 Q 207.204 53.345 207.204 53.917 L 207.204 62.772 Q 207.204 63.343 206.633 63.343 Z M 205.109 51.879 Q 204.538 51.879 204.538 51.308 L 204.538 50.089 Q 204.538 49.518 205.109 49.518 L 206.633 49.518 Q 207.204 49.518 207.204 50.089 L 207.204 51.308 Q 207.204 51.879 206.633 51.879 Z" style="fill: rgb(54, 48, 163); white-space: pre;"/>
  <path d="M 209.386 62.676 Q 208.92 62.343 209.129 61.962 L 209.615 61.077 Q 209.872 60.601 210.415 60.963 Q 210.957 61.324 211.695 61.496 Q 212.433 61.667 213.043 61.667 Q 213.471 61.667 213.842 61.582 Q 214.214 61.496 214.471 61.248 Q 214.728 61.001 214.728 60.525 Q 214.728 60.239 214.576 60.039 Q 214.423 59.839 214.185 59.734 Q 213.947 59.63 213.681 59.563 Q 213.328 59.477 212.667 59.277 Q 212.005 59.077 211.395 58.811 Q 210.891 58.592 210.41 58.197 Q 209.929 57.801 209.705 57.316 Q 209.482 56.83 209.482 56.116 Q 209.482 55.155 210.039 54.431 Q 210.596 53.707 211.481 53.431 Q 212.367 53.155 213.69 53.155 Q 214.585 53.155 215.433 53.412 Q 216.28 53.669 216.642 53.898 Q 217.213 54.26 216.927 54.669 L 216.347 55.516 Q 216.08 55.897 215.49 55.573 Q 215.042 55.326 214.609 55.174 Q 214.176 55.021 213.642 55.021 Q 213.281 55.021 212.947 55.097 Q 212.614 55.174 212.381 55.383 Q 212.148 55.593 212.148 55.935 Q 212.148 56.297 212.362 56.502 Q 212.576 56.707 212.857 56.802 Q 213.138 56.897 213.395 56.983 Q 213.928 57.154 214.471 57.311 Q 215.014 57.468 215.575 57.687 Q 216.061 57.878 216.518 58.23 Q 216.975 58.582 217.184 59.125 Q 217.394 59.668 217.394 60.363 Q 217.394 61.286 216.842 62.077 Q 216.289 62.867 215.385 63.2 Q 214.48 63.533 213.281 63.533 Q 211.938 63.533 210.996 63.343 Q 210.053 63.153 209.386 62.676 Z" style="fill: rgb(54, 48, 163); white-space: pre;"/>
  <path d="M 219.033 55.25 Q 218.471 55.25 218.471 54.774 L 218.471 53.822 Q 218.471 53.345 219.033 53.345 L 219.68 53.345 L 219.68 53.012 Q 219.68 52.584 219.88 52.231 L 220.613 50.946 Q 220.823 50.584 221.109 50.584 L 221.775 50.584 Q 222.346 50.584 222.346 51.155 L 222.346 53.345 L 223.889 53.345 Q 224.451 53.345 224.451 53.822 L 224.451 54.774 Q 224.451 55.25 223.889 55.25 L 222.346 55.25 L 222.346 59.972 Q 222.346 60.944 222.484 61.367 Q 222.622 61.791 223.203 61.791 Q 223.498 61.791 223.87 61.691 Q 224.241 61.591 224.451 61.496 Q 224.784 61.343 224.889 61.715 L 225.174 62.8 Q 225.26 63.124 224.927 63.276 Q 224.612 63.419 224.065 63.538 Q 223.517 63.657 222.965 63.657 Q 221.604 63.657 220.642 63.095 Q 219.68 62.534 219.68 60.782 L 219.68 55.25 Z" style="fill: rgb(54, 48, 163); white-space: pre;"/>
  <path d="M 226.427 60.677 Q 226.427 58.773 228.245 57.916 Q 230.064 57.059 232.397 57.002 L 232.397 56.621 Q 232.397 55.745 231.959 55.383 Q 231.521 55.021 230.74 55.021 Q 230.188 55.021 229.764 55.178 Q 229.34 55.335 229.031 55.54 Q 228.721 55.745 228.474 55.954 Q 228.036 56.335 227.75 55.992 L 226.96 55.021 Q 226.665 54.659 227.103 54.279 Q 227.436 53.983 227.879 53.764 Q 228.321 53.545 229.055 53.35 Q 229.788 53.155 230.959 53.155 Q 232.939 53.155 234.001 54.069 Q 235.063 54.983 235.063 56.764 L 235.063 62.772 Q 235.063 63.343 234.491 63.343 L 232.93 63.343 Q 232.416 63.343 232.416 62.772 L 232.416 62.486 L 232.397 62.486 Q 231.835 63.029 231.049 63.281 Q 230.264 63.533 229.607 63.533 Q 228.045 63.533 227.236 62.767 Q 226.427 62 226.427 60.677 Z M 229.245 60.62 Q 229.245 60.953 229.378 61.196 Q 229.512 61.439 229.797 61.553 Q 230.083 61.667 230.435 61.667 Q 230.921 61.667 231.378 61.534 Q 231.835 61.401 232.397 60.905 L 232.397 58.839 Q 230.797 59.02 230.254 59.306 Q 229.712 59.592 229.478 59.896 Q 229.245 60.201 229.245 60.62 Z" style="fill: rgb(54, 48, 163); white-space: pre;"/>
  <path d="M 238.226 63.343 Q 237.655 63.343 237.655 62.772 L 237.655 53.917 Q 237.655 53.345 238.226 53.345 L 239.731 53.345 Q 240.302 53.345 240.302 53.917 L 240.302 54.469 L 240.34 54.469 Q 240.778 53.717 241.454 53.436 Q 242.13 53.155 243.082 53.155 Q 244.568 53.155 245.539 54.088 Q 246.51 55.021 246.51 57.497 L 246.51 62.772 Q 246.51 63.343 245.939 63.343 L 244.415 63.343 Q 243.844 63.343 243.844 62.772 L 243.844 58.182 Q 243.844 56.107 243.559 55.564 Q 243.273 55.021 242.33 55.021 Q 241.33 55.021 240.826 55.797 Q 240.321 56.573 240.321 59.02 L 240.321 62.772 Q 240.321 63.343 239.75 63.343 Z" style="fill: rgb(54, 48, 163); white-space: pre;"/>
  <path d="M 248.752 55.25 Q 248.19 55.25 248.19 54.774 L 248.19 53.822 Q 248.19 53.345 248.752 53.345 L 249.399 53.345 L 249.399 53.012 Q 249.399 52.584 249.599 52.231 L 250.332 50.946 Q 250.542 50.584 250.827 50.584 L 251.494 50.584 Q 252.065 50.584 252.065 51.155 L 252.065 53.345 L 253.608 53.345 Q 254.169 53.345 254.169 53.822 L 254.169 54.774 Q 254.169 55.25 253.608 55.25 L 252.065 55.25 L 252.065 59.972 Q 252.065 60.944 252.203 61.367 Q 252.341 61.791 252.922 61.791 Q 253.217 61.791 253.589 61.691 Q 253.96 61.591 254.169 61.496 Q 254.503 61.343 254.607 61.715 L 254.893 62.8 Q 254.979 63.124 254.645 63.276 Q 254.331 63.419 253.784 63.538 Q 253.236 63.657 252.684 63.657 Q 251.322 63.657 250.361 63.095 Q 249.399 62.534 249.399 60.782 L 249.399 55.25 Z" style="fill: rgb(54, 48, 163); white-space: pre;"/>
  <line x1="256.026" y1="68.664" x2="170.604" y2="68.526" style="fill: rgb(55, 48, 163);" transform="matrix(0.9999999999999999, 0, 0, 0.9999999999999999, 0, 0)"/>
  <path style="fill: rgb(216, 216, 216); stroke: rgb(54, 48, 163); stroke-width: 3px; stroke-linecap: round;" d="M 257 67.511 L 169.763 67.361" transform="matrix(0.9999999999999999, 0, 0, 0.9999999999999999, 0, 0)"/>
</svg>